# xmcd
#
# Track frame offsets: 
#        150
#        22331
#        47106
#        67918
#        86042
#        109843
#        131697
#        153351
#        168721
#        191736
#        213136
#        226888
#
# Disc length: 3365 seconds
#
# Revision: 0
# Processed by: cddbd v1.5.2PL0 Copyright (c) Steve Scherf et al.
# Submitted via: ExactAudioCopyFreeDBPlugin 1.0
#
DISCID=a60d230c
DTITLE=Terry 'Harmonica' Bean - Catfish Blues
DYEAR=2014
DGENRE=Blues
TTITLE0=I Want To Tell You What The Reason Is
TTITLE1=How Many More Years
TTITLE2=Shake Your Money Maker
TTITLE3=Catfish Blues
TTITLE4=Back Door Man
TTITLE5=Kind Hearted Baby
TTITLE6=Freight Train Blues
TTITLE7=I'm Going Back Down South
TTITLE8=Try Me One More Time
TTITLE9=I'm Worried 'Bout My Baby
TTITLE10=I Just Want To Make Love To You
TTITLE11=I Wanna Know Who Will Be Your Sweet Man When I'm Gone
EXTD=
EXTT0=
EXTT1=
EXTT2=
EXTT3=
EXTT4=
EXTT5=
EXTT6=
EXTT7=
EXTT8=
EXTT9=
EXTT10=
EXTT11=
PLAYORDER=
